<svg xmlns="http://www.w3.org/2000/svg" xmlns:xlink="http://www.w3.org/1999/xlink" width="24" height="16" viewBox="0 0 24 16"><defs><path id="ngtha" d="M348.82 379.52a11.03 11.03 0 0 1-5.82 1.63c-2.09 0-4.03-.55-5.82-1.63a13.82 13.82 0 0 1-4.47-4.37 13.17 13.17 0 0 1 5.1-4.73 5.85 5.85 0 0 0-.81 3.01c0 1.65.59 3.07 1.76 4.24a5.78 5.78 0 0 0 4.24 1.76c1.65 0 3.06-.59 4.24-1.76a5.78 5.78 0 0 0 1.76-4.24c0-1.08-.27-2.08-.82-3.01a13.17 13.17 0 0 1 5.1 4.73 13.83 13.83 0 0 1-4.46 4.37zm-7.79-8.06c-.54.55-.82 1.2-.82 1.97 0 .18-.06.33-.18.46a.62.62 0 0 1-.46.18.62.62 0 0 1-.45-.18.62.62 0 0 1-.2-.46c0-1.12.4-2.07 1.2-2.87.8-.8 1.76-1.2 2.88-1.2.18 0 .33.06.46.19.12.12.18.27.18.45s-.06.33-.18.46a.62.62 0 0 1-.46.19c-.77 0-1.42.27-1.97.81zm8.66-2.17a13 13 0 0 0-13.38 0 14.3 14.3 0 0 0-5.04 4.93c-.18.31-.27.62-.27.93 0 .3.09.6.27.92a14.3 14.3 0 0 0 5.04 4.93 13 13 0 0 0 13.38 0 14.2 14.2 0 0 0 5.04-4.93c.18-.31.27-.62.27-.92 0-.3-.09-.62-.27-.93a14.3 14.3 0 0 0-5.04-4.93z"/></defs><g><g transform="translate(-331 -367)"><use xlink:href="#ngtha"/><use fill="#fff" xlink:href="#ngtha"/></g></g></svg>