<svg xmlns="http://www.w3.org/2000/svg" xmlns:xlink="http://www.w3.org/1999/xlink" width="14" height="13" viewBox="0 0 14 13"><defs><path id="tdv0a" d="M293.65 34.61c-.82 0-1.51-.28-2.1-.86a2.85 2.85 0 0 1-.86-2.1c0-.8.29-1.5.87-2.08a2.85 2.85 0 0 1 2.09-.87c.81 0 1.5.29 2.09.87.58.58.87 1.27.87 2.09 0 .81-.3 1.5-.87 2.09-.58.58-1.28.86-2.1.86zm3.83-.32a4.57 4.57 0 0 0-.54-5.93 4.65 4.65 0 0 0-5.1-.98 4.65 4.65 0 1 0 4.44 8.1l2.27 2.26c.16.17.35.26.6.26.22 0 .42-.09.59-.26a.81.81 0 0 0 .25-.59.8.8 0 0 0-.25-.6z"/></defs><g><g transform="translate(-287 -26)"><use xlink:href="#tdv0a"/></g></g></svg>