<svg xmlns="http://www.w3.org/2000/svg" xmlns:xlink="http://www.w3.org/1999/xlink" width="16" height="15" viewBox="0 0 16 15"><defs><path id="adg7a" d="M754.57 940a.4.4 0 0 0-.21.06l-11.15 6.42a.4.4 0 0 0-.21.4c.01.18.1.3.27.37l2.64 1.08 7.16-6.2-5.78 7.1v2.34c0 .09.02.17.07.24a.42.42 0 0 0 .35.19.4.4 0 0 0 .33-.16l1.62-1.97 3.04 1.23c.05.03.1.04.16.04.07 0 .14-.02.2-.06.13-.07.2-.17.22-.3l1.71-10.28a.42.42 0 0 0-.18-.43.42.42 0 0 0-.24-.07z"/></defs><g><g transform="translate(-741 -938)"><use xlink:href="#adg7a"/><use fill="#4a4a4a" xlink:href="#adg7a"/></g></g></svg>