<svg xmlns="http://www.w3.org/2000/svg" xmlns:xlink="http://www.w3.org/1999/xlink" width="29" height="24" viewBox="0 0 29 24"><defs><path id="i73fa" d="M1399.3 38.09a.31.31 0 0 0-.11-.15l-.14-.1a.49.49 0 0 0-.19-.04l-.19-.02H1393.45c-.74 0-1.37-.26-1.9-.79a2.58 2.58 0 0 1-.78-1.89V23.31c0-.73.26-1.36.78-1.89a2.58 2.58 0 0 1 1.9-.78h5.35a.5.5 0 0 0 .35-.11.55.55 0 0 0 .16-.33 2.86 2.86 0 0 0 .05-.84 7.5 7.5 0 0 1-.02-.33.52.52 0 0 0-.16-.38.52.52 0 0 0-.38-.16h-5.35c-1.33 0-2.47.47-3.41 1.42a4.64 4.64 0 0 0-1.42 3.4V35.1c0 1.33.48 2.46 1.42 3.4a4.64 4.64 0 0 0 3.4 1.42h5.36a.5.5 0 0 0 .35-.1.55.55 0 0 0 .16-.33 2.86 2.86 0 0 0 .05-.84 7.5 7.5 0 0 1-.02-.34.67.67 0 0 0-.03-.22zm6.15-18.74a1.03 1.03 0 0 0-.75-.32c-.3 0-.55.1-.76.32-.2.2-.32.46-.32.75v4.82h-7.5c-.29 0-.54.1-.75.32-.21.21-.32.46-.32.75v6.43c0 .3.1.54.32.76.21.2.46.31.75.31h7.5v4.82c0 .3.11.55.32.76.21.21.47.32.76.32.29 0 .54-.11.75-.32l9.1-9.1c.22-.22.32-.47.32-.76 0-.3-.1-.54-.31-.76z"/></defs><g><g transform="translate(-1387 -17)"><use xlink:href="#i73fa"/><use fill="#fff" xlink:href="#i73fa"/></g></g></svg>